<?xml version="1.0" standalone="no"?><!DOCTYPE svg PUBLIC "-//W3C//DTD SVG 1.1//EN" "http://www.w3.org/Graphics/SVG/1.1/DTD/svg11.dtd"><svg t="1684978965643" class="icon" viewBox="0 0 1024 1024" version="1.1" xmlns="http://www.w3.org/2000/svg" p-id="924" xmlns:xlink="http://www.w3.org/1999/xlink" width="200" height="200"><path d="M174.62 315.65l282.57 166.41a120.93 120.93 0 0 0 122.7 0l282.57-166.41c27.64-16.27 16.09-58.62-16-58.62H190.59c-32.07-0.03-43.59 42.35-15.97 58.62z" fill="#001708" p-id="925"></path><path d="M863.36 349.62l-288.8 208.59c-33.67 24.32-77.45 24.32-111.12 0l-288.8-208.59c-8.84-6.38-20.64 0.51-20.64 12.05v343.4c0 31.44 23.42 56.93 52.31 56.93h625.78c28.67 0 51.91-25.29 51.91-56.49V361.67c0-11.54-11.8-18.43-20.64-12.05z" fill="#001708" p-id="926"></path></svg>