<?xml version="1.0" standalone="no"?><!DOCTYPE svg PUBLIC "-//W3C//DTD SVG 1.1//EN" "http://www.w3.org/Graphics/SVG/1.1/DTD/svg11.dtd"><svg t="1686147928006" class="icon" viewBox="0 0 1024 1024" version="1.1" xmlns="http://www.w3.org/2000/svg" p-id="6236" xmlns:xlink="http://www.w3.org/1999/xlink" width="200" height="200"><path d="M512 967.111111c-81.540741 0-162.133333-31.288889-223.762963-92.918518-123.259259-123.259259-123.259259-324.266667 0-447.525926 10.42963-10.42963 26.548148-10.42963 36.977778 0s10.42963 26.548148 0 36.977777c-103.348148 103.348148-103.348148 270.222222 0 373.570371 102.4 102.4 270.222222 102.4 373.57037 0 103.348148-103.348148 103.348148-270.222222 0-373.570371-10.42963-10.42963-10.42963-26.548148 0-36.977777s26.548148-10.42963 36.977778 0c123.259259 123.259259 123.259259 324.266667 0 447.525926-61.62963 61.62963-142.222222 92.918519-223.762963 92.918518z" fill="#0097FF" p-id="6237"></path><path d="M623.881481 113.777778l120.414815 120.414815v15.17037L512.948148 481.659259 280.651852 248.414815v-14.222222L400.118519 113.777778h223.762962m6.637038-56.888889h-237.037038c-10.42963 0.948148-20.859259 4.740741-28.444444 12.325926L236.088889 198.162963c-8.533333 8.533333-12.325926 18.962963-12.325926 28.444444v28.444445c0.948148 10.42963 4.740741 20.859259 12.325926 28.444444L483.555556 532.859259c6.637037 7.585185 16.118519 11.377778 26.548148 12.325926h1.896296c9.481481 0 18.962963-3.792593 26.548148-9.481481l2.844445-2.844445 246.518518-248.414815c7.585185-7.585185 11.377778-18.014815 11.377778-28.444444v-27.496296c0-11.377778-4.740741-21.807407-12.325926-30.340741L659.911111 69.214815c-8.533333-7.585185-18.014815-12.325926-29.392592-12.325926z" fill="#0097FF" p-id="6238"></path><path d="M504.414815 397.274074l-37.925926-37.925926c-3.792593-3.792593-3.792593-9.481481 0-13.274074L606.814815 205.748148c3.792593-3.792593 9.481481-3.792593 13.274074 0l37.925926 37.925926c3.792593 3.792593 3.792593 9.481481 0 13.274074L517.688889 397.274074c-3.792593 3.792593-9.481481 3.792593-13.274074 0z" fill="#0097FF" p-id="6239"></path><path d="M519.585185 397.274074l37.925926-37.925926c3.792593-3.792593 3.792593-9.481481 0-13.274074L417.185185 204.8c-3.792593-3.792593-9.481481-3.792593-13.274074 0l-37.925926 37.925926c-3.792593 3.792593-3.792593 9.481481 0 13.274074l140.325926 140.325926c3.792593 4.740741 9.481481 4.740741 13.274074 0.948148z" fill="#0097FF" p-id="6240"></path></svg>